<?xml version="1.0" encoding="utf-8"?>
<!-- Generator: Adobe Illustrator 21.1.0, SVG Export Plug-In . SVG Version: 6.00 Build 0)  -->
<svg version="1.1" id="Lager_1" xmlns="http://www.w3.org/2000/svg" xmlns:xlink="http://www.w3.org/1999/xlink" x="0px" y="0px"
	 viewBox="0 0 406.9 91.2" style="enable-background:new 0 0 406.9 91.2;" xml:space="preserve">
<style type="text/css">
	.st0{fill:#EE6449;}
	.st1{fill:#101010;}
</style>
<g>
	<circle class="st0" cx="45.2" cy="46" r="10.4"/>
	<path class="st0" d="M24.9,84.1c-0.7,0.7-0.5,1.8,0.4,2.3c6.4,3.2,13.4,4.8,20.3,4.8c11.9,0,23.6-4.6,32.4-13.3
		C94.6,61.3,96,35,81.1,16.8l-3.7,3l0,0l3.7-3c-1-1.2-2-2.3-3.1-3.4l-2.5-2.5c-0.6-0.6-1.5-0.6-2,0l-12,11.8
		c-0.5,0.5-1.2,0.5-1.8,0.2c-5.7-3.6-12.5-5-19.4-3.7c-3.7,0.6-7.2,2.1-10.3,4.2C17.2,32,14.5,48.6,22,60.6c0.4,0.6,0.3,1.3-0.2,1.8
		l-3.5,3.5c-0.6,0.6-1.7,0.5-2.2-0.2c-9.6-14-8-32.9,4.3-45.2c10.3-10.3,25.8-13.2,39-7.7c0.5,0.2,1.1,0.1,1.6-0.3L66.5,7
		c0.7-0.7,0.5-1.8-0.4-2.3C48.7-4,27.3-0.6,13.4,13.3C-3.2,30-4.5,56.2,10.3,74.4l3.7-3l0,0l-3.7,3c1,1.2,2,2.3,3.1,3.4l2.5,2.5
		c0.6,0.6,1.5,0.6,2,0l10.9-10.9c0.5-0.5,1.2-0.5,1.8-0.2c5.7,3.6,12.6,5,19.6,3.7c3.8-0.7,7.3-2.2,10.5-4.4
		c7.6-5.3,11.8-13.6,11.8-22.6c0-5.2-1.5-10.2-4.2-14.5c-0.4-0.6-0.3-1.3,0.2-1.8l4.4-4.4c0.6-0.6,1.7-0.5,2.2,0.2
		c9.6,14,7.9,32.9-4.3,45.2C60.6,81.1,45,84,31.9,78.4c-0.5-0.2-1.1-0.1-1.6,0.3L24.9,84.1z M62.6,46.1c0,4.6-1.8,9-5.1,12.3
		s-7.6,5.1-12.3,5.1c-4.6,0-9-1.8-12.3-5.1c-6.8-6.8-6.8-17.8,0-24.5c3.3-3.3,7.6-5.1,12.3-5.1c4.6,0,9,1.8,12.3,5.1
		C60.8,37.1,62.6,41.4,62.6,46.1z"/>
</g>
<g>
	<g>
		<path class="st1" d="M130.3,40.8c-6-2.5-8.8-4.8-8.8-8.4c0-2.4,2.3-5.2,6.6-5.2c4.1,0,9.8,3.7,10.4,4.1c0.9,0.6,2,0,2.6-0.9
			l2.8-4.2c0.5-0.7,0.3-2-0.4-2.5c-1.5-1.1-7.3-5-14.9-5c-11.9,0-16.8,7.7-16.8,14.3c0,8.8,7,13.3,14,16.1c6.3,2.5,9.5,5.1,9.5,8.9
			c0,3.2-2.9,5.7-6.8,5.7c-4.8,0-10.9-4.4-11.3-4.6c-0.7-0.5-1.9-0.5-2.5,0.5l-2.7,4.6c-0.7,1.2-0.3,1.6,0.4,2.2
			c1.5,1.4,7,5.8,16.4,5.8c10.5,0,17.2-7.1,17.2-14.8C145.9,48.1,137.6,43.7,130.3,40.8z"/>
		<path class="st1" d="M128.8,72.9c-9.7,0-15.3-4.6-16.7-6c-0.7-0.7-1.3-1.3-0.5-2.8l2.7-4.6c0.4-0.7,1.1-1.1,1.9-1.1
			c0.5,0,1,0.2,1.4,0.4l0,0c0,0,0.1,0.1,0.2,0.1c4.2,2.8,8,4.4,10.8,4.4c3.6,0,6.3-2.3,6.3-5.2c0-3.3-2.7-5.9-9.2-8.5
			c-6.2-2.5-14.3-6.9-14.3-16.6c0-7.1,5.4-14.8,17.3-14.8c8,0,14.1,4.2,15.2,5.1c0.4,0.2,0.7,0.7,0.9,1.3c0.1,0.6,0,1.3-0.3,1.8
			l-2.8,4.2c-0.8,1.2-2.3,1.7-3.3,1l-0.1-0.1c-2.3-1.5-6.7-3.9-10-3.9c-3.7,0-6.1,2.4-6.1,4.7c0,3.1,2.5,5.4,8.5,7.9
			c7.9,3.2,15.9,7.7,15.9,17.3C146.4,65.1,140.2,72.9,128.8,72.9z M116.2,59.4c-0.3,0-0.7,0.1-1,0.6l-2.7,4.6
			c-0.5,0.9-0.3,1,0.3,1.6c1,0.9,6.5,5.7,16.1,5.7c10.8,0,16.7-7.3,16.7-14.3c0-9-7.7-13.4-15.3-16.4c-6.5-2.6-9.1-5.2-9.1-8.8
			c0-2.8,2.6-5.7,7.1-5.7c3.5,0,8.1,2.6,10.5,4.1l0.1,0.1c0.6,0.4,1.4,0,1.9-0.7l2.8-4.3c0.2-0.3,0.2-0.7,0.2-1
			c-0.1-0.3-0.2-0.6-0.5-0.7c-1.1-0.8-7-4.9-14.7-4.9c-7.8,0-16.3,4.3-16.3,13.8c0,9.1,7.8,13.3,13.7,15.6c6.9,2.8,9.8,5.6,9.8,9.4
			c0,3.5-3.2,6.2-7.3,6.2c-3,0-6.9-1.6-11.3-4.6c-0.1-0.1-0.2-0.1-0.2-0.1C116.7,59.5,116.4,59.4,116.2,59.4z"/>
	</g>
	<g>
		<path class="st1" d="M185,19.5h-30.3c-0.8,0-1.4,0.7-1.4,1.4v49.4c0,0.7,0.6,1.4,1.4,1.4H185c0.8,0,1.4-0.7,1.4-1.4v-6.1
			c0-0.7-0.6-1.4-1.4-1.4h-22.1v-13h18.4c0.7,0,1.4-0.6,1.4-1.4v-6.2c0-0.7-0.7-1.4-1.4-1.4h-18.4V28.4H185c0.8,0,1.4-0.7,1.4-1.4
			v-6.1C186.4,20.2,185.8,19.5,185,19.5z"/>
		<path class="st1" d="M185,72.2h-30.3c-1.1,0-1.9-0.9-1.9-1.9V20.9c0-1.1,0.9-1.9,1.9-1.9H185c1.1,0,1.9,0.9,1.9,1.9V27
			c0,1.1-0.9,1.9-1.9,1.9h-21.6v11.2h17.9c1,0,1.9,0.9,1.9,1.9v6.2c0,1.1-0.9,1.9-1.9,1.9h-17.9v12H185c1.1,0,1.9,0.9,1.9,1.9v6.1
			C186.9,71.3,186,72.2,185,72.2z M154.6,20c-0.6,0-0.9,0.5-0.9,0.9v49.4c0,0.4,0.4,0.9,0.9,0.9H185c0.6,0,0.9-0.5,0.9-0.9v-6.1
			c0-0.4-0.4-0.9-0.9-0.9h-22.6v-14h18.9c0.4,0,0.9-0.4,0.9-0.9v-6.2c0-0.5-0.4-0.9-0.9-0.9h-18.9V27.9H185c0.6,0,0.9-0.5,0.9-0.9
			v-6.1c0-0.4-0.4-0.9-0.9-0.9H154.6z"/>
	</g>
	<g>
		<path class="st1" d="M237.5,19.5h-6.9c-0.8,0-1.4,0.7-1.4,1.4v30.8h-0.1l-31-33h-1.9c-0.7,0-1.4,0.6-1.4,1.3v50.2
			c0,0.7,0.7,1.4,1.4,1.4h6.8c0.8,0,1.4-0.7,1.4-1.4v-32h0.1l31.2,34.2h1.8c0.7,0,1.4-0.6,1.4-1.3V20.9
			C238.9,20.2,238.2,19.5,237.5,19.5z"/>
		<path class="st1" d="M237.5,72.9h-2l-0.1-0.2L205,39.3v30.9c0,1.1-0.9,1.9-1.9,1.9h-6.8c-1,0-1.9-0.9-1.9-1.9V20.1
			c0-1,0.9-1.8,1.9-1.8h2.1l0.1,0.2l30.2,32.1V20.9c0-1.1,0.9-1.9,1.9-1.9h6.9c1,0,1.9,0.9,1.9,1.9v50.2
			C239.4,72.1,238.5,72.9,237.5,72.9z M235.9,71.9h1.6c0.5,0,0.9-0.4,0.9-0.8V20.9c0-0.5-0.4-0.9-0.9-0.9h-6.9
			c-0.6,0-0.9,0.5-0.9,0.9v31.3H229l-0.2-0.2l-30.9-32.8h-1.6c-0.5,0-0.9,0.4-0.9,0.8v50.2c0,0.5,0.4,0.9,0.9,0.9h6.8
			c0.6,0,0.9-0.5,0.9-0.9V37.7h0.7l0.2,0.2L235.9,71.9z"/>
	</g>
	<g>
		<path class="st1" d="M269.2,19.5h-17.7c-0.7,0-1.3,0.7-1.3,1.4v49.4c0,0.7,0.6,1.4,1.3,1.4h17.7c14.4,0,26.2-11.7,26.2-26.2
			C295.4,31.2,283.6,19.5,269.2,19.5z M268.4,62.6h-8.5V28.5h8.5c9.7,0,16.8,7.3,16.8,17C285.1,55.3,278,62.6,268.4,62.6z"/>
		<path class="st1" d="M269.2,72.2h-17.7c-1,0-1.8-0.9-1.8-1.9V20.9c0-1,0.8-1.9,1.8-1.9h17.7c14.7,0,26.7,11.9,26.7,26.5
			C295.9,60.2,284,72.2,269.2,72.2z M251.6,20c-0.4,0-0.8,0.4-0.8,0.9v49.4c0,0.5,0.4,0.9,0.8,0.9h17.7c14.2,0,25.7-11.5,25.7-25.7
			c0-14.1-11.5-25.5-25.7-25.5C269.3,20,251.6,20,251.6,20z M268.4,63.1h-9V28h9c9.9,0,17.3,7.5,17.3,17.5
			C285.6,55.5,278.2,63.1,268.4,63.1z M260.4,62.1h8c9.4,0,16.3-7,16.3-16.6c0-9.4-7-16.5-16.3-16.5h-8V62.1z"/>
	</g>
	<g>
		<path class="st1" d="M311.4,19.5h-6.9c-0.7,0-1.4,0.7-1.4,1.4v49.4c0,0.7,0.7,1.4,1.4,1.4h6.9c0.7,0,1.4-0.7,1.4-1.4V20.9
			C312.8,20.2,312.1,19.5,311.4,19.5z"/>
		<path class="st1" d="M311.4,72.2h-6.9c-1,0-1.9-0.9-1.9-1.9V20.9c0-1,0.9-1.9,1.9-1.9h6.9c1,0,1.9,0.9,1.9,1.9v49.4
			C313.3,71.3,312.4,72.2,311.4,72.2z M304.4,20c-0.5,0-0.9,0.4-0.9,0.9v49.4c0,0.5,0.4,0.9,0.9,0.9h6.9c0.5,0,0.9-0.4,0.9-0.9V20.9
			c0-0.5-0.4-0.9-0.9-0.9H304.4z"/>
	</g>
	<g>
		<path class="st1" d="M355.9,19.5h-30.3c-0.8,0-1.4,0.7-1.4,1.4v49.4c0,0.7,0.6,1.4,1.4,1.4h6.9c0.7,0,1.4-0.7,1.4-1.4V51.4h18.4
			c0.7,0,1.4-0.7,1.4-1.4v-6.1c0-0.7-0.7-1.4-1.4-1.4h-18.4v-14H356c0.8,0,1.4-0.7,1.4-1.4V21C357.3,20.2,356.7,19.5,355.9,19.5z"/>
		<path class="st1" d="M332.4,72.2h-6.9c-1.1,0-1.9-0.9-1.9-1.9V20.9c0-1.1,0.9-1.9,1.9-1.9h30.3c1.1,0,1.9,0.9,1.9,1.9V27
			c0,1.1-0.9,1.9-1.9,1.9h-21.6v13h17.9c1,0,1.9,0.9,1.9,1.9V50c0,1-0.9,1.9-1.9,1.9h-17.9v18.4C334.3,71.3,333.4,72.2,332.4,72.2z
			 M325.5,20c-0.6,0-0.9,0.5-0.9,0.9v49.4c0,0.4,0.4,0.9,0.9,0.9h6.9c0.5,0,0.9-0.4,0.9-0.9V50.9h18.9c0.5,0,0.9-0.4,0.9-0.9v-6.1
			c0-0.5-0.4-0.9-0.9-0.9h-18.9V28h22.6c0.6,0,0.9-0.5,0.9-0.9V21c0-0.4-0.4-0.9-0.9-0.9h-30.4V20z"/>
	</g>
	<g>
		<path class="st1" d="M405.5,19.5h-7.7c-0.6,0-1,0.4-1.2,0.7l-11.9,17.2l-11.9-17.2c-0.2-0.3-0.6-0.7-1.2-0.7H364
			c-1.2,0-1.8,1.2-1.2,2.2l17,24.9v23.7c0,0.7,0.6,1.4,1.4,1.4h6.9c0.7,0,1.4-0.7,1.4-1.4V46.5l17.2-24.8
			C407.3,20.7,406.7,19.5,405.5,19.5z"/>
		<path class="st1" d="M388,72.2h-6.9c-1.1,0-1.9-0.9-1.9-1.9V46.7l-16.9-24.8c-0.4-0.6-0.4-1.4-0.1-2s1-1,1.7-1h7.6
			c0.6,0,1.2,0.3,1.6,0.9l11.5,16.6l11.5-16.6c0.4-0.6,1-0.9,1.6-0.9h7.7c0.7,0,1.4,0.4,1.7,1c0.3,0.6,0.3,1.3-0.1,2l-17.2,24.7
			v23.6C389.9,71.3,389.1,72.2,388,72.2z M363.9,20c-0.4,0-0.7,0.2-0.8,0.4c-0.2,0.3-0.1,0.6,0.1,1l17.1,25v23.9
			c0,0.4,0.4,0.9,0.9,0.9h6.9c0.5,0,0.9-0.4,0.9-0.9v-24l0.1-0.1l17.2-24.8c0.2-0.3,0.2-0.7,0-0.9c-0.2-0.3-0.5-0.4-0.8-0.4h-7.7
			c-0.3,0-0.6,0.1-0.8,0.5l-12.3,17.7l-12.3-17.7c-0.2-0.3-0.5-0.5-0.8-0.5h-7.7V20z"/>
	</g>
</g>
</svg>
