<?xml version="1.0" encoding="UTF-8"?>
<svg width="91px" height="87px" viewBox="0 0 91 87" version="1.1" xmlns="http://www.w3.org/2000/svg" xmlns:xlink="http://www.w3.org/1999/xlink">
    <!-- Generator: Sketch 48.2 (47327) - http://www.bohemiancoding.com/sketch -->
    <title>Paket Copy 11</title>
    <desc>Created with Sketch.</desc>
    <defs></defs>
    <g id="APP---Simple-signup" stroke="none" stroke-width="1" fill="none" fill-rule="evenodd">
        <g id="Group-23" transform="translate(-52.000000, -1150.000000)">
            <g id="Group-12-Copy" transform="translate(0.000000, 1083.000000)">
                <g id="Group-5-Copy">
                    <g id="Paket-Copy-11" transform="translate(52.240695, 67.000000)">
                        <polygon id="Path-11" fill="#D8D8D8" points="16.4287122 54.180406 0.369790195 63.5635329 39.7571344 86.791393 51.2392949 86.791393 38.1710128 58.5430213"></polygon>
                        <polygon id="Path-6" fill="#F5AF5D" points="51.2870504 86.4012302 51.2870504 46.1028613 89.9832497 23.6813626 89.9832497 62.9424757"></polygon>
                        <polygon id="Path-7" fill="#A46833" points="51.4575653 46.3664362 12.1682414 23.4685509 12.1682414 63.1825411 51.4575653 86.5695151"></polygon>
                        <polygon id="Path-8" fill="#FFC375" points="51.2348928 46.2623222 90.0568052 23.7344018 51.2348928 0.365711531 12.3387564 23.7344018"></polygon>
                        <polygon id="Path-9" fill="#FAFAF1" points="72.1929047 12.9733845 34.0047306 35.8713562 34.0047306 43.6329222 28.2029841 40.3717071 28.2029841 32.82931 67.0039998 9.84854596"></polygon>
                        <polygon id="Path-10" fill="#FAFAF1" points="25.7916904 71.2915896 25.7916904 65.892725 31.1365852 69.0404438 31.1365852 74.4753203"></polygon>
                        <path d="M31.0268132,34.470197 L69.5467802,11.3280459" id="Path-12" stroke="#979797" stroke-width="0.5" opacity="0.138870018"></path>
                    </g>
                </g>
            </g>
        </g>
    </g>
</svg>